# xmcd
#
# Track frame offsets:
# 150
# 15132
# 33897
# 49487
# 61600
# 78992
# 90987
# 105732
# 122740
# 140030
# 153650
# 173885
# 189852
# 204422
#
# Disc length: 2979 seconds
#
#
# Revision: 0
# Processed by: cddbd v1.5.2PL0 Copyright (c) Steve Scherf et al.
# Submitted via: FreeRIP 2.96 
#
DISCID=a90ba10e
DTITLE=Sugarland - Pickin' on Sugarland - The Bluegrass Tribute
DYEAR=2008
DGENRE=Bluegrass
TTITLE0=Something More
TTITLE1=Baby Girl
TTITLE2=Hello
TTITLE3=Tennessee
TTITLE4=Just Might (Make Me Believe)
TTITLE5=Down in Mississipi (Up to No Good)
TTITLE6=Fly Away
TTITLE7=Speed of Life
TTITLE8=Small Town Jericho
TTITLE9=Time, Time, Time
TTITLE10=Stand Back Up
TTITLE11=Every Day Americ (bonu track)
TTITLE12=Settlin' (bonus track)
TTITLE13=Stay (bonus track)
EXTD=
EXTT0=
EXTT1=
EXTT2=
EXTT3=
EXTT4=
EXTT5=
EXTT6=
EXTT7=
EXTT8=
EXTT9=
EXTT10=
EXTT11=
EXTT12=
EXTT13=
PLAYORDER=
